# xmcd
#
# Track frame offsets:
#	150
#	17529
#	34408
#	50633
#	74626
#	92734
#	112748
#	130275
#	152463
#	169753
#	190255
#
# Disc length: 2751 seconds
#
# Revision: 16
# Processed by: cddbd v1.5.2PL0 Copyright (c) Steve Scherf et al.
# Submitted via: Jack! The Knife 20 Magnifico
#
DISCID=8f0abd0b
DTITLE=Stryper - Against The Law
DYEAR=1990
DGENRE=Metal
TTITLE0=Against The Law
TTITLE1=Two Time Woman
TTITLE2=Rock The People
TTITLE3=Two Bodies (One Mind One Soul)
TTITLE4=Not That Kind Of Guy
TTITLE5=Shining Star
TTITLE6=Ordinary Man
TTITLE7=Lady
TTITLE8=Caught In The Middle
TTITLE9=All For One
TTITLE10=Rock The Hell Out Of You
EXTD=Tom Werman
EXTT0=Michael Sweet
EXTT1=Michael Sweet
EXTT2=Michael Sweet
EXTT3=Michael Sweet
EXTT4=Michael Sweet
EXTT5=Bailey, Dunn, White
EXTT6=Michael Sweet
EXTT7=Michael Sweet
EXTT8=Michael Sweet
EXTT9=Michael Sweet
EXTT10=Michael Sweet
PLAYORDER=
